<?xml version="1.0" encoding="utf-8"?>
<!-- Generator: Adobe Illustrator 16.0.0, SVG Export Plug-In . SVG Version: 6.00 Build 0)  -->
<!DOCTYPE svg PUBLIC "-//W3C//DTD SVG 1.1//EN" "http://www.w3.org/Graphics/SVG/1.1/DTD/svg11.dtd">
<svg version="1.1" id="Layer_1" xmlns="http://www.w3.org/2000/svg" xmlns:xlink="http://www.w3.org/1999/xlink" x="0px" y="0px"
	 width="94.59px" height="65.556px" viewBox="0 0 94.59 65.556" enable-background="new 0 0 94.59 65.556" xml:space="preserve">
<g>
	<rect x="-287.708" y="-298.749" fill="#43AA96" width="135.17" height="135.168"/>
	<rect x="-152.539" y="-298.749" fill="#FBE39D" width="135.168" height="135.168"/>
	<rect x="-17.37" y="-298.749" fill="#DC574B" width="135.17" height="135.168"/>
	<rect x="-152.539" y="-163.89" fill="#FFF8DF" width="135.168" height="135.169"/>
	<rect x="-287.708" y="-163.89" fill="#7C6B66" width="135.17" height="135.169"/>
	<rect x="-152.539" y="-28.914" fill="#43AA96" width="135.168" height="135.169"/>
	<rect x="-287.708" y="-28.914" fill="#DC574B" width="135.17" height="135.168"/>
	<rect x="-17.37" y="-163.89" fill="#BBD9BD" width="135.17" height="135.169"/>
	<polygon fill="#D7C593" points="94.59,-322.876 -40.58,-322.96 -40.58,-458.128 94.59,-458.128 	"/>
</g>
<rect x="16.288" y="57.431" fill="#43AA96" width="61" height="8.125"/>
<g>
	<g>
		<rect x="21.957" y="27.251" fill="#5A4945" width="31.154" height="7.527"/>
		<rect x="21.331" y="24.062" fill="#43AA96" width="31.78" height="3.049"/>
		<polygon fill="#DC574B" points="27.264,48.446 45.781,39.674 45.781,42.77 27.264,58.303 		"/>
		<rect x="1.636" y="48.446" fill="#5E554A" width="25.483" height="16.547"/>
		<rect y="60.88" fill="#5A4945" width="28.754" height="4.113"/>
		<rect x="5.712" y="14.925" fill="#DC574B" width="16.893" height="33.521"/>
		<g>
			<g>
				<rect x="5.712" y="12.442" fill="#5E554A" width="4.914" height="2.896"/>
				<polygon fill="#5E554A" points="8.17,5.414 9.384,9.708 10.6,12.472 8.17,12.472 5.74,12.472 6.955,9.708 				"/>
			</g>
			<g>
				<rect x="17.689" y="12.442" fill="#5E554A" width="4.915" height="2.896"/>
				<polygon fill="#5E554A" points="20.146,5.414 21.361,9.708 22.575,12.472 20.146,12.472 17.717,12.472 18.932,9.708 				"/>
			</g>
			<g>
				<rect x="11.256" y="10.985" fill="#5E554A" width="5.987" height="5.068"/>
				<polygon fill="#5E554A" points="14.248,0 15.729,6.28 17.209,11.03 14.248,11.03 11.29,11.03 12.771,6.28 				"/>
			</g>
		</g>
		<rect x="5.712" y="14.925" fill="#43AA96" width="16.893" height="2.914"/>
		<g>
			<rect x="9.649" y="20.752" fill="#FBE39D" width="3.783" height="11.37"/>
			<rect x="9.649" y="34.526" fill="#FBE39D" width="3.783" height="11.371"/>
			<g>
				<rect x="14.733" y="20.752" fill="#FBE39D" width="3.783" height="11.37"/>
				<rect x="14.733" y="34.526" fill="#FBE39D" width="3.783" height="11.371"/>
			</g>
		</g>
	</g>
	<rect x="1.636" y="60.637" fill="#49423A" width="25.483" height="4.356"/>
</g>
<g>
	<g>
		<rect x="41.391" y="27.251" fill="#5A4945" width="31.153" height="7.527"/>
		<rect x="41.391" y="24.062" fill="#43AA96" width="31.779" height="3.049"/>
		<polygon fill="#DC574B" points="67.237,48.446 48.72,39.674 48.72,42.77 67.237,58.303 		"/>
		<rect x="67.382" y="48.446" fill="#5E554A" width="25.483" height="16.547"/>
		<rect x="65.747" y="60.88" fill="#5A4945" width="28.754" height="4.113"/>
		<rect x="71.896" y="14.925" fill="#DC574B" width="16.893" height="33.521"/>
		<g>
			<g>
				<rect x="83.875" y="12.442" fill="#5E554A" width="4.914" height="2.896"/>
				<polygon fill="#5E554A" points="86.331,5.414 85.117,9.708 83.901,12.472 86.331,12.472 88.761,12.472 87.546,9.708 				"/>
			</g>
			<g>
				<rect x="71.896" y="12.442" fill="#5E554A" width="4.915" height="2.896"/>
				<polygon fill="#5E554A" points="74.354,5.414 73.14,9.708 71.926,12.472 74.354,12.472 76.784,12.472 75.569,9.708 				"/>
			</g>
			<g>
				<rect x="77.258" y="10.985" fill="#5E554A" width="5.987" height="5.068"/>
				<polygon fill="#5E554A" points="80.253,0 78.772,6.28 77.292,11.03 80.253,11.03 83.211,11.03 81.73,6.28 				"/>
			</g>
		</g>
		<rect x="71.896" y="14.925" fill="#43AA96" width="16.893" height="2.914"/>
		<g>
			<rect x="81.068" y="20.752" fill="#FBE39D" width="3.783" height="11.37"/>
			<rect x="81.068" y="34.526" fill="#FBE39D" width="3.783" height="11.371"/>
			<g>
				<rect x="75.984" y="20.752" fill="#FBE39D" width="3.783" height="11.37"/>
				<rect x="75.984" y="34.526" fill="#FBE39D" width="3.783" height="11.371"/>
			</g>
		</g>
	</g>
	<rect x="67.382" y="60.637" fill="#49423A" width="25.483" height="4.356"/>
</g>
<linearGradient id="SVGID_1_" gradientUnits="userSpaceOnUse" x1="-158.8335" y1="7.2686" x2="-227.7347" y2="-64.445" gradientTransform="matrix(0.888 0.0238 0.0238 0.888 -1.1733 -144.3597)">
	<stop  offset="0" style="stop-color:#FFFFFF"/>
	<stop  offset="0.1412" style="stop-color:#F9F9F9"/>
	<stop  offset="0.3242" style="stop-color:#E9E9EA"/>
	<stop  offset="0.5301" style="stop-color:#CECFD0"/>
	<stop  offset="0.7528" style="stop-color:#A9AAAC"/>
	<stop  offset="0.9867" style="stop-color:#7A7C7E"/>
	<stop  offset="1" style="stop-color:#77797B"/>
</linearGradient>
<polygon opacity="0.2" fill="url(#SVGID_1_)" points="-152.617,-163.846 -224.329,-163.801 -261.595,-201.449 -189.462,-222.074 
	-179.428,-243.886 -152.617,-217.074 "/>
<linearGradient id="SVGID_2_" gradientUnits="userSpaceOnUse" x1="-7.5234" y1="5.5879" x2="-79.1954" y2="-69.0096" gradientTransform="matrix(0.888 0.0238 0.0238 0.888 -1.1733 -144.3597)">
	<stop  offset="0" style="stop-color:#FFFFFF"/>
	<stop  offset="0.1412" style="stop-color:#F9F9F9"/>
	<stop  offset="0.3242" style="stop-color:#E9E9EA"/>
	<stop  offset="0.5301" style="stop-color:#CECFD0"/>
	<stop  offset="0.7528" style="stop-color:#A9AAAC"/>
	<stop  offset="0.9867" style="stop-color:#7A7C7E"/>
	<stop  offset="1" style="stop-color:#77797B"/>
</linearGradient>
<polygon opacity="0.2" fill="url(#SVGID_2_)" points="-17.45,-163.846 -92.779,-163.846 -131.191,-202.595 -51.712,-216.574 
	-37.164,-234.623 -17.45,-214.908 "/>
<linearGradient id="SVGID_3_" gradientUnits="userSpaceOnUse" x1="149.6777" y1="-6.9463" x2="84.4482" y2="-74.8384" gradientTransform="matrix(0.888 0.0238 0.0238 0.888 -1.1733 -144.3597)">
	<stop  offset="0" style="stop-color:#FFFFFF"/>
	<stop  offset="0.1412" style="stop-color:#F9F9F9"/>
	<stop  offset="0.3242" style="stop-color:#E9E9EA"/>
	<stop  offset="0.5301" style="stop-color:#CECFD0"/>
	<stop  offset="0.7528" style="stop-color:#A9AAAC"/>
	<stop  offset="0.9867" style="stop-color:#7A7C7E"/>
	<stop  offset="1" style="stop-color:#77797B"/>
</linearGradient>
<polygon opacity="0.2" fill="url(#SVGID_3_)" points="117.55,-164.096 74.788,-164.096 27.218,-212.003 83.663,-235.887 
	86.044,-236.393 117.55,-204.887 "/>
<linearGradient id="SVGID_4_" gradientUnits="userSpaceOnUse" x1="-157.2827" y1="149.9619" x2="-219.2193" y2="85.4973" gradientTransform="matrix(0.888 0.0238 0.0238 0.888 -1.1733 -144.3597)">
	<stop  offset="0" style="stop-color:#FFFFFF"/>
	<stop  offset="0.1412" style="stop-color:#F9F9F9"/>
	<stop  offset="0.3242" style="stop-color:#E9E9EA"/>
	<stop  offset="0.5301" style="stop-color:#CECFD0"/>
	<stop  offset="0.7528" style="stop-color:#A9AAAC"/>
	<stop  offset="0.9867" style="stop-color:#7A7C7E"/>
	<stop  offset="1" style="stop-color:#77797B"/>
</linearGradient>
<polygon opacity="0.2" fill="url(#SVGID_4_)" points="-152.784,-29.096 -196.975,-29.096 -240.378,-72.837 -189.878,-90.907 
	-176.748,-104.205 -152.784,-80.24 "/>
<linearGradient id="SVGID_5_" gradientUnits="userSpaceOnUse" x1="-8.5225" y1="157.126" x2="-84.6174" y2="77.925" gradientTransform="matrix(0.888 0.0238 0.0238 0.888 -1.1733 -144.3597)">
	<stop  offset="0" style="stop-color:#FFFFFF"/>
	<stop  offset="0.1412" style="stop-color:#F9F9F9"/>
	<stop  offset="0.3242" style="stop-color:#E9E9EA"/>
	<stop  offset="0.5301" style="stop-color:#CECFD0"/>
	<stop  offset="0.7528" style="stop-color:#A9AAAC"/>
	<stop  offset="0.9867" style="stop-color:#7A7C7E"/>
	<stop  offset="1" style="stop-color:#77797B"/>
</linearGradient>
<polygon opacity="0.2" fill="url(#SVGID_5_)" points="-17.284,-28.929 -88.284,-28.668 -133.604,-74.326 -55.045,-86.24 
	-41.998,-106.788 -17.284,-82.074 "/>
<linearGradient id="SVGID_6_" gradientUnits="userSpaceOnUse" x1="-164.5322" y1="310.3438" x2="-235.6766" y2="236.2954" gradientTransform="matrix(0.888 0.0238 0.0238 0.888 -1.1733 -144.3597)">
	<stop  offset="0" style="stop-color:#FFFFFF"/>
	<stop  offset="0.1412" style="stop-color:#F9F9F9"/>
	<stop  offset="0.3242" style="stop-color:#E9E9EA"/>
	<stop  offset="0.5301" style="stop-color:#CECFD0"/>
	<stop  offset="0.7528" style="stop-color:#A9AAAC"/>
	<stop  offset="0.9867" style="stop-color:#7A7C7E"/>
	<stop  offset="1" style="stop-color:#77797B"/>
</linearGradient>
<polygon opacity="0.2" fill="url(#SVGID_6_)" points="-152.534,106.082 -217.712,106.082 -260.537,62.919 -188.128,48.594 
	-177.789,28.005 -152.534,53.26 "/>
<linearGradient id="SVGID_7_" gradientUnits="userSpaceOnUse" x1="-11.5693" y1="304.9336" x2="-81.6388" y2="232.0041" gradientTransform="matrix(0.888 0.0238 0.0238 0.888 -1.1733 -144.3597)">
	<stop  offset="0" style="stop-color:#FFFFFF"/>
	<stop  offset="0.1412" style="stop-color:#F9F9F9"/>
	<stop  offset="0.3242" style="stop-color:#E9E9EA"/>
	<stop  offset="0.5301" style="stop-color:#CECFD0"/>
	<stop  offset="0.7528" style="stop-color:#A9AAAC"/>
	<stop  offset="0.9867" style="stop-color:#7A7C7E"/>
	<stop  offset="1" style="stop-color:#77797B"/>
</linearGradient>
<polygon opacity="0.2" fill="url(#SVGID_7_)" points="-17.867,106.415 -85.962,106.415 -126.087,65.676 -48.337,52.051 
	-44.415,19.254 -17.867,45.801 "/>
<linearGradient id="SVGID_8_" gradientUnits="userSpaceOnUse" x1="146.0234" y1="148.3379" x2="74.0583" y2="73.4353" gradientTransform="matrix(0.888 0.0238 0.0238 0.888 -1.1733 -144.3597)">
	<stop  offset="0" style="stop-color:#FFFFFF"/>
	<stop  offset="0.1412" style="stop-color:#F9F9F9"/>
	<stop  offset="0.3242" style="stop-color:#E9E9EA"/>
	<stop  offset="0.5301" style="stop-color:#CECFD0"/>
	<stop  offset="0.7528" style="stop-color:#A9AAAC"/>
	<stop  offset="0.9867" style="stop-color:#7A7C7E"/>
	<stop  offset="1" style="stop-color:#77797B"/>
</linearGradient>
<polygon opacity="0.2" fill="url(#SVGID_8_)" points="117.591,-29.054 50.163,-29.054 7.441,-71.853 80.413,-80.449 
	91.101,-116.887 117.591,-90.86 "/>
<g>
	<g>
		<rect x="-261.86" y="-240.883" fill="#DC574B" width="10.037" height="25.616"/>
		<rect x="-237.969" y="-240.883" fill="#DC574B" width="10.037" height="25.616"/>
		<rect x="-214.078" y="-240.883" fill="#DC574B" width="10.037" height="25.616"/>
		<rect x="-190.187" y="-240.883" fill="#DC574B" width="10.037" height="25.616"/>
	</g>
</g>
<path fill="#79C6B7" d="M-180.066-222.342c-1.791,0-3.326-1.028-4.094-2.518c-0.769,1.489-2.303,2.518-4.096,2.518
	c-1.788,0-3.324-1.028-4.092-2.518c-0.768,1.489-2.304,2.518-4.095,2.518s-3.326-1.028-4.095-2.518
	c-0.767,1.489-2.303,2.518-4.093,2.518s-3.326-1.028-4.094-2.518c-0.768,1.489-2.303,2.518-4.094,2.518s-3.326-1.028-4.094-2.518
	c-0.767,1.489-2.302,2.518-4.093,2.518s-3.326-1.028-4.094-2.518c-0.768,1.489-2.303,2.518-4.094,2.518
	c-1.791,0-3.326-1.028-4.095-2.518c-0.767,1.489-2.303,2.518-4.093,2.518s-3.326-1.028-4.094-2.518
	c-0.768,1.489-2.304,2.518-4.093,2.518c-1.791,0-3.327-1.028-4.095-2.518c-0.768,1.489-2.303,2.518-4.093,2.518
	c-1.791,0-3.325-1.028-4.094-2.518c-0.769,1.489-2.303,2.518-4.094,2.518c0.122,0.154,0,21.08,0,21.08h81.877V-222.342z"/>
<g>
	<g>
		<polygon fill="#FBE39D" points="-181.795,-241.227 -191.478,-252.753 -198.98,-243.251 -206.46,-252.716 -213.937,-243.251 
			-221.413,-252.716 -228.89,-243.251 -236.362,-252.715 -243.831,-243.251 -251.337,-252.753 -260.214,-242.183 -262.128,-243.791 
			-251.278,-256.711 -243.832,-247.285 -236.362,-256.75 -228.889,-247.285 -221.413,-256.749 -213.937,-247.285 -206.46,-256.749 
			-198.981,-247.285 -191.537,-256.711 -179.881,-242.835 		"/>
	</g>
	<polygon fill="#FBE39D" points="-250.588,-257.574 -252.54,-255.307 -190.248,-255.307 -192.24,-257.574 	"/>
</g>
<rect x="-262.77" y="-243.935" fill="#49423A" width="83.53" height="5.976"/>
<g>
	<g>
		<g>
			<rect x="-110.949" y="-239.831" fill="#D1C095" width="3" height="11.667"/>
		</g>
		<g>
			<rect x="-102.949" y="-245.831" fill="#D1C095" width="3" height="17.667"/>
		</g>
		<g>
			<rect x="-94.949" y="-249.581" fill="#D1C095" width="3" height="21.417"/>
		</g>
		<g>
			<rect x="-86.949" y="-250.081" fill="#D1C095" width="3" height="21.917"/>
		</g>
		<g>
			<rect x="-78.949" y="-248.581" fill="#D1C095" width="3" height="20.417"/>
		</g>
		<g>
			<rect x="-70.949" y="-245.831" fill="#D1C095" width="3" height="17.667"/>
		</g>
		<g>
			<rect x="-62.949" y="-240.081" fill="#D1C095" width="3" height="11.917"/>
		</g>
	</g>
	<path fill="#D1C095" d="M-112.981-229.081c4.574-10.61,15.162-17.771,27.356-17.771c12.099,0,22.743,7.248,27.34,17.771h5.373
		c-4.857-13.371-17.843-22.771-32.713-22.771c-14.983,0-27.901,9.273-32.737,22.771H-112.981z"/>
	<path fill="#79C6B7" d="M-51.846-218.621c-1.496,0-2.779-0.859-3.421-2.104c-0.642,1.244-1.924,2.104-3.422,2.104
		c-1.494,0-2.777-0.859-3.419-2.104c-0.642,1.244-1.925,2.104-3.422,2.104c-1.496,0-2.779-0.859-3.421-2.104
		c-0.641,1.244-1.925,2.104-3.42,2.104c-1.496,0-2.779-0.859-3.421-2.104c-0.642,1.244-1.925,2.104-3.421,2.104
		s-2.779-0.859-3.422-2.104c-0.64,1.244-1.923,2.104-3.419,2.104c-1.497,0-2.779-0.859-3.422-2.104
		c-0.642,1.244-1.924,2.104-3.42,2.104s-2.779-0.859-3.422-2.104c-0.641,1.244-1.924,2.104-3.42,2.104
		c-1.495,0-2.778-0.859-3.421-2.104c-0.642,1.244-1.925,2.104-3.42,2.104c-1.496,0-2.779-0.859-3.421-2.104
		c-0.643,1.244-1.925,2.104-3.421,2.104s-2.778-0.859-3.421-2.104c-0.643,1.244-1.925,2.104-3.421,2.104
		c0.102,0.129,0,15.906,0,15.906h68.415V-218.621z"/>
	<rect x="-121.554" y="-230.331" fill="#7C6B66" width="71" height="3.75"/>
	<g>
		<g>
			<rect x="-131.639" y="-229.193" fill="#49423A" width="11.671" height="26.479"/>
			<polygon fill="#DC574B" points="-119.951,-234.874 -119.951,-232.689 -124.173,-232.689 -124.173,-234.874 -127.434,-234.874 
				-127.434,-232.689 -131.656,-232.689 -131.656,-234.874 -134.917,-234.874 -134.917,-232.689 -134.917,-228.873 
				-134.917,-226.688 -116.69,-226.688 -116.69,-228.873 -116.69,-232.689 -116.69,-234.874 			"/>
			<path fill="#7C6B66" d="M-123.236-215.074v-5.407c0-1.418-1.149-2.567-2.567-2.567s-2.567,1.149-2.567,2.567v5.407H-123.236z"/>
		</g>
		<g>
			<rect x="-52.14" y="-229.193" fill="#49423A" width="11.672" height="26.479"/>
			<polygon fill="#DC574B" points="-40.451,-234.874 -40.451,-232.689 -44.673,-232.689 -44.673,-234.874 -47.934,-234.874 
				-47.934,-232.689 -52.156,-232.689 -52.156,-234.874 -55.417,-234.874 -55.417,-232.689 -55.417,-228.873 -55.417,-226.688 
				-37.19,-226.688 -37.19,-228.873 -37.19,-232.689 -37.19,-234.874 			"/>
			<path fill="#7C6B66" d="M-43.736-215.074v-5.407c0-1.418-1.149-2.567-2.567-2.567s-2.566,1.149-2.566,2.567v5.407H-43.736z"/>
		</g>
	</g>
</g>
<g>
	
		<line fill="none" stroke="#FBE39D" stroke-width="3" stroke-miterlimit="10" x1="19.172" y1="-230.205" x2="19.172" y2="-238.824"/>
	
		<line fill="none" stroke="#FBE39D" stroke-width="3" stroke-miterlimit="10" x1="27.005" y1="-236.271" x2="27.005" y2="-244.074"/>
	
		<line fill="none" stroke="#FBE39D" stroke-width="3" stroke-miterlimit="10" x1="34.838" y1="-238.824" x2="34.838" y2="-247.574"/>
	
		<line fill="none" stroke="#FBE39D" stroke-width="3" stroke-miterlimit="10" x1="42.672" y1="-241.324" x2="42.672" y2="-248.824"/>
	
		<line fill="none" stroke="#FBE39D" stroke-width="3" stroke-miterlimit="10" x1="50.505" y1="-242.074" x2="50.505" y2="-249.324"/>
	
		<line fill="none" stroke="#FBE39D" stroke-width="3" stroke-miterlimit="10" x1="58.338" y1="-240.824" x2="58.338" y2="-248.824"/>
	
		<line fill="none" stroke="#FBE39D" stroke-width="3" stroke-miterlimit="10" x1="66.172" y1="-238.824" x2="66.172" y2="-247.324"/>
	
		<line fill="none" stroke="#FBE39D" stroke-width="3" stroke-miterlimit="10" x1="74.005" y1="-237.434" x2="74.005" y2="-244.324"/>
	
		<line fill="none" stroke="#FBE39D" stroke-width="3" stroke-miterlimit="10" x1="81.838" y1="-230.333" x2="81.838" y2="-239.324"/>
	<path fill="#49423A" d="M14.431-235.781h3.729c0.455-0.449,0.92-0.892,1.407-1.321l0,0c7.854-6.926,19.22-10.898,31.185-10.898
		c11.666,0,22.857,3.841,30.705,10.538c0.637,0.543,1.242,1.107,1.828,1.682h3.742c-1.029-1.13-2.145-2.215-3.35-3.243
		c-8.414-7.182-20.416-11.3-32.926-11.3c-12.827,0-25.016,4.26-33.438,11.688v0C16.281-237.727,15.327-236.769,14.431-235.781z"/>
	<path fill="#FBE39D" d="M23.395-230.081c4.574-6.557,15.162-10.982,27.356-10.982c12.099,0,22.743,4.479,27.34,10.982h5.373
		c-4.857-8.264-17.843-14.072-32.713-14.072c-14.983,0-27.901,5.731-32.737,14.072H23.395z"/>
	<g>
		<path fill="#43AA96" d="M16.942-231.402c2.661,16.45,16.924,29.014,34.124,29.014c17.202,0,31.464-12.564,34.126-29.014"/>
		<path fill="#43AA96" d="M85.209-231.535c-1.495,0-2.778-0.859-3.419-2.103c-0.643,1.244-1.924,2.103-3.421,2.103
			c-1.494,0-2.777-0.859-3.419-2.103c-0.641,1.244-1.924,2.103-3.42,2.103s-2.777-0.859-3.42-2.103
			c-0.641,1.244-1.924,2.103-3.419,2.103s-2.778-0.859-3.419-2.103c-0.642,1.244-1.924,2.103-3.42,2.103s-2.777-0.859-3.42-2.103
			c-0.641,1.244-1.924,2.103-3.419,2.103s-2.778-0.859-3.419-2.103c-0.643,1.244-1.924,2.103-3.42,2.103s-2.778-0.859-3.42-2.103
			c-0.641,1.244-1.924,2.103-3.42,2.103c-1.494,0-2.777-0.859-3.419-2.103c-0.642,1.244-1.925,2.103-3.419,2.103
			c-1.496,0-2.779-0.859-3.42-2.103c-0.643,1.244-1.924,2.103-3.42,2.103c-1.495,0-2.777-0.859-3.42-2.103
			c-0.642,1.244-1.924,2.103-3.42,2.103c0.936,1.188,2.518,2.228,2.518,2.228h64.771L85.209-231.535z"/>
	</g>
</g>
<g>
	<g>
		<path fill="#79C6B7" d="M-250.73-91.845c2.556,15.792,16.249,27.854,32.762,27.854c16.515,0,30.207-12.062,32.763-27.854"/>
		<path fill="#79C6B7" d="M-185.189-91.973c-1.436,0-2.667-0.824-3.283-2.02c-0.617,1.195-1.847,2.02-3.284,2.02
			c-1.435,0-2.667-0.824-3.282-2.02c-0.616,1.195-1.847,2.02-3.284,2.02c-1.436,0-2.667-0.824-3.283-2.02
			c-0.615,1.195-1.847,2.02-3.282,2.02c-1.435,0-2.667-0.824-3.283-2.02c-0.615,1.195-1.846,2.02-3.283,2.02
			s-2.667-0.824-3.284-2.02c-0.615,1.195-1.846,2.02-3.282,2.02s-2.667-0.824-3.283-2.02c-0.617,1.195-1.847,2.02-3.284,2.02
			c-1.436,0-2.667-0.824-3.283-2.02c-0.615,1.195-1.847,2.02-3.282,2.02c-1.436,0-2.667-0.824-3.283-2.02
			c-0.616,1.195-1.847,2.02-3.283,2.02c-1.436,0-2.667-0.824-3.283-2.02c-0.616,1.195-1.847,2.02-3.283,2.02
			c-1.436,0-2.667-0.824-3.283-2.02c-0.617,1.195-1.847,2.02-3.284,2.02c0.898,1.141,2.417,2.139,2.417,2.139h62.184
			L-185.189-91.973z"/>
	</g>
	<g>
		<g>
			<path fill="#3F9E8C" d="M-251.219-101.921c-2.837-2.702-6.848-3.405-10.298-2.158l3.092,2.943l3.273,0.387l-2.436,0.411
				l9.029,8.595C-247.483-95.249-248.382-99.22-251.219-101.921z"/>
		</g>
		<g>
			<path fill="#43AA96" d="M-249.367-92.514c-1.1-3.5-4.09-6.263-7.959-6.881s-7.572,1.074-9.708,4.058l4.362,0.698l2.401-1.265
				l-1.462,1.416l4.545,0.725l2.4-1.264l-1.461,1.414L-249.367-92.514z"/>
		</g>
	</g>
	<g>
		<g>
			<path fill="#3F9E8C" d="M-186.672-101.921c2.837-2.702,6.848-3.405,10.298-2.158l-3.092,2.943l-3.273,0.387l2.437,0.411
				l-9.029,8.595C-190.408-95.249-189.509-99.22-186.672-101.921z"/>
		</g>
		<g>
			<path fill="#43AA96" d="M-188.524-92.514c1.1-3.5,4.09-6.263,7.959-6.881s7.572,1.074,9.708,4.058l-4.362,0.698l-2.401-1.265
				l1.462,1.416l-4.545,0.725l-2.4-1.264l1.461,1.414L-188.524-92.514z"/>
		</g>
	</g>
	<g>
		<g>
			<path fill="#FBE39D" d="M-249.93-91.987c-1.022-0.429-1.767-1.246-2.115-2.28c-0.387-1.047-0.176-2.212,0.399-3.316
				c0.561-1.115,1.625-1.784,2.656-2.03c1.045-0.245,2.116-0.033,3.008,0.624c0.892,0.659,1.457,1.616,1.682,2.578
				c0.232,0.972,0.066,1.91-0.364,2.795c-0.445,0.873-1.346,1.406-2.229,1.736C-247.811-91.572-248.908-91.559-249.93-91.987z"/>
			<path fill="#DCC68A" d="M-246.467-94.641c-0.479,0.881-1.658,1.218-2.623,0.752c-0.964-0.465-1.305-1.665-0.755-2.671
				c0.52-1.025,1.804-1.296,2.695-0.709C-246.252-96.676-246.018-95.541-246.467-94.641z"/>
		</g>
		<g>
			<path fill="#FBE39D" d="M-245.982-98.99c-0.898-0.656-1.456-1.638-1.508-2.688c-0.061-1.046,0.289-2.237,1.131-3.151
				c0.878-0.881,1.998-1.357,3.046-1.373c1.079,0.008,2.103,0.496,2.816,1.336c0.722,0.851,1.019,1.876,1.013,2.858
				c0.015,1.013-0.294,1.957-0.995,2.647c-0.664,0.721-1.54,1.138-2.55,1.196C-244.042-98.113-245.09-98.338-245.982-98.99z"/>
			<path fill="#DCC68A" d="M-241.995-100.771c-0.682,0.736-1.849,0.842-2.689,0.158c-0.821-0.667-0.933-1.963-0.156-2.804
				c0.811-0.81,2.071-0.832,2.805-0.052S-241.282-101.478-241.995-100.771z"/>
		</g>
		<g>
			<path fill="#FBE39D" d="M-240.497-104.865c-0.722-0.842-1.016-1.9-0.856-2.97c0.083-0.53,0.26-1.08,0.571-1.558
				c0.321-0.462,0.747-0.886,1.262-1.232c0.516-0.346,1.07-0.582,1.619-0.703c0.569-0.091,1.139-0.058,1.661,0.069
				c1.051,0.258,1.916,0.932,2.42,1.919c0.503,0.988,0.576,2.091,0.344,3.042c-0.118,0.478-0.318,0.912-0.588,1.295
				c-0.252,0.417-0.578,0.773-0.986,1.047c-0.409,0.275-0.861,0.441-1.341,0.517c-0.468,0.09-0.937,0.122-1.426,0.046
				C-238.783-103.538-239.775-104.023-240.497-104.865z"/>
			<path fill="#DCC68A" d="M-236.203-105.676c-0.834,0.56-2.049,0.318-2.687-0.509c-0.67-0.87-0.428-2.08,0.524-2.719
				c0.947-0.647,2.167-0.396,2.716,0.553C-235.127-107.445-235.375-106.245-236.203-105.676z"/>
		</g>
		<g>
			<path fill="#FBE39D" d="M-233.819-109.34c-0.504-0.975-0.571-2.121-0.16-3.108c0.413-0.964,1.282-1.82,2.431-2.298
				c1.17-0.424,2.403-0.297,3.348,0.161c0.949,0.448,1.644,1.337,1.906,2.42c0.259,1.073,0.067,2.13-0.367,3.045
				c-0.441,0.912-1.157,1.565-2.079,1.896c-0.902,0.387-1.892,0.312-2.821-0.086C-232.477-107.692-233.306-108.345-233.819-109.34z"
				/>
			<path fill="#DCC68A" d="M-229.465-109.165c-0.923,0.392-2.036-0.087-2.477-1.064c-0.44-0.976,0.061-2.134,1.118-2.576
				c1.077-0.392,2.231,0.204,2.533,1.219C-227.979-110.549-228.522-109.506-229.465-109.165z"/>
		</g>
		<g>
			<path fill="#FBE39D" d="M-226.294-112.166c-0.266-1.076-0.052-2.145,0.576-3.015c0.626-0.848,1.65-1.596,2.895-1.677
				c1.239-0.112,2.399,0.174,3.214,0.896c0.821,0.723,1.29,1.728,1.295,2.836c0.006,1.109-0.427,2.113-1.064,2.837
				c-0.644,0.727-1.482,1.319-2.46,1.399c-0.983,0.049-1.909-0.134-2.719-0.732C-225.358-110.2-226.027-111.089-226.294-112.166z"/>
			<path fill="#DCC68A" d="M-222.092-110.946c-1.004,0.061-1.959-0.57-2.164-1.635c-0.201-1.039,0.541-2.142,1.687-2.221
				c1.14-0.116,2.118,0.662,2.178,1.731C-220.33-112.001-221.093-111.046-222.092-110.946z"/>
		</g>
		<g>
			<path fill="#FBE39D" d="M-218.313-113.126c-0.011-1.108,0.445-2.113,1.256-2.838c0.807-0.767,1.958-1.072,3.197-0.95
				c0.617,0.064,1.192,0.232,1.69,0.497c0.492,0.305,0.909,0.689,1.227,1.125c0.64,0.872,0.87,1.944,0.621,3.025
				c-0.249,1.08-0.902,1.972-1.691,2.551c-0.397,0.29-0.831,0.5-1.282,0.612c-0.459,0.152-0.94,0.224-1.43,0.173
				c-0.978-0.093-1.828-0.673-2.483-1.356C-217.857-111.013-218.303-112.017-218.313-113.126z"/>
			<path fill="#DCC68A" d="M-214.502-110.992c-1-0.101-1.776-1.058-1.731-2.127c0.045-1.069,1.009-1.851,2.149-1.736
				c0.565,0.058,1.05,0.327,1.364,0.713c0.312,0.39,0.448,0.936,0.36,1.457c-0.088,0.535-0.376,0.949-0.764,1.258
				C-213.514-111.111-213.999-110.941-214.502-110.992z"/>
		</g>
		<g>
			<path fill="#FBE39D" d="M-210.322-112.268c0.242-1.073,0.925-1.988,1.876-2.49c0.936-0.471,2.15-0.566,3.338-0.19
				c1.175,0.408,2.031,1.317,2.462,2.273c0.436,0.962,0.406,2.068-0.092,3.072c-0.488,0.981-1.326,1.688-2.243,2.104
				c-0.924,0.417-1.887,0.438-2.812,0.118c-0.938-0.287-1.647-0.981-2.103-1.886C-210.354-110.138-210.568-111.177-210.322-112.268z
				"/>
			<path fill="#DCC68A" d="M-207.1-109.334c-0.959-0.296-1.501-1.379-1.212-2.411c0.29-1.03,1.417-1.593,2.511-1.25
				c1.083,0.374,1.578,1.59,1.159,2.557C-205.073-109.44-206.152-109.009-207.1-109.334z"/>
		</g>
		<g>
			<path fill="#FBE39D" d="M-202.738-109.602c0.487-0.996,1.339-1.676,2.378-1.938c1.021-0.243,2.289-0.163,3.295,0.574
				c1.021,0.711,1.73,1.669,1.885,2.756c0.166,1.079-0.118,2.148-0.826,3.001c-0.709,0.853-1.687,1.346-2.643,1.494
				c-0.952,0.133-1.982,0.057-2.781-0.512c-0.786-0.594-1.381-1.326-1.613-2.309C-203.286-107.495-203.227-108.607-202.738-109.602z
				"/>
			<path fill="#DCC68A" d="M-200.304-105.966c-0.809-0.598-1.139-1.689-0.609-2.641c0.511-0.92,1.792-1.294,2.721-0.62
				c0.949,0.643,1.198,1.868,0.557,2.726C-198.275-105.643-199.474-105.401-200.304-105.966z"/>
		</g>
		<g>
			<path fill="#FBE39D" d="M-196.006-105.208c0.705-0.856,1.7-1.334,2.79-1.372c1.107-0.064,2.171,0.463,3.062,1.331
				c0.91,0.854,1.236,2.072,1.183,3.126c-0.062,1.07-0.569,2.035-1.455,2.702c-0.885,0.667-1.965,0.934-2.952,0.877
				c-1.004-0.049-1.848-0.486-2.575-1.151c-0.71-0.678-0.969-1.688-1.027-2.635C-197.014-103.298-196.711-104.352-196.006-105.208z"
				/>
			<path fill="#DCC68A" d="M-194.458-101.128c-0.708-0.711-0.695-1.936,0.028-2.727s1.971-0.774,2.778,0.038
				c0.834,0.79,0.718,2.107-0.094,2.787C-192.575-100.333-193.721-100.442-194.458-101.128z"/>
		</g>
		<g>
			<path fill="#FBE39D" d="M-190.427-99.421c0.892-0.679,1.977-0.922,3.002-0.675c1.018,0.241,2.074,0.908,2.696,1.984
				c0.596,1.092,0.735,2.301,0.452,3.309c-0.328,1.038-1.078,1.877-2.09,2.319c-1.019,0.448-2.095,0.442-3.022,0.151
				c-0.976-0.273-1.797-0.839-2.258-1.705c-0.489-0.85-0.652-1.799-0.418-2.786C-191.829-97.805-191.299-98.756-190.427-99.421z"/>
			<path fill="#DCC68A" d="M-189.862-95.088c-0.498-0.87-0.28-2.012,0.62-2.624c0.87-0.595,2.158-0.34,2.729,0.653
				c0.547,1.006,0.21,2.221-0.748,2.701C-188.218-93.877-189.388-94.204-189.862-95.088z"/>
		</g>
	</g>
</g>
<g>
	<g>
		<g>
			<rect x="-119.801" y="-110.199" fill="#DC574B" width="1.969" height="3.75"/>
			<rect x="-114.863" y="-112.699" fill="#DC574B" width="1.969" height="6.375"/>
		</g>
		<g>
			<rect x="-57.28" y="-110.262" fill="#DC574B" width="1.969" height="3.75"/>
			<rect x="-62.218" y="-112.762" fill="#DC574B" width="1.969" height="6.375"/>
		</g>
	</g>
	<g>
		<rect x="-104.051" y="-115.428" fill="#DC574B" width="1.969" height="9.375"/>
		<rect x="-98.843" y="-115.428" fill="#DC574B" width="1.969" height="9.375"/>
		<rect x="-93.635" y="-115.511" fill="#DC574B" width="1.969" height="9.375"/>
		<rect x="-88.426" y="-115.511" fill="#DC574B" width="1.969" height="9.375"/>
		<rect x="-83.218" y="-115.595" fill="#DC574B" width="1.969" height="9.375"/>
		<rect x="-78.01" y="-115.261" fill="#DC574B" width="1.969" height="9.375"/>
		<rect x="-72.802" y="-115.428" fill="#DC574B" width="1.969" height="9.375"/>
	</g>
	<path fill="#43AA96" d="M-54.745-88.889c-1.439,0-2.674-0.828-3.289-2.023c-0.617,1.195-1.852,2.023-3.293,2.023
		c-1.438,0-2.67-0.828-3.287-2.023c-0.617,1.195-1.854,2.023-3.293,2.023c-1.438,0-2.672-0.828-3.289-2.023
		c-0.617,1.195-1.852,2.023-3.29,2.023c-1.44,0-2.674-0.828-3.292-2.023c-0.616,1.195-1.852,2.023-3.291,2.023
		c-1.438,0-2.673-0.828-3.291-2.023c-0.615,1.195-1.849,2.023-3.288,2.023c-1.44,0-2.674-0.828-3.292-2.023
		c-0.618,1.195-1.852,2.023-3.29,2.023s-2.672-0.828-3.292-2.023c-0.617,1.195-1.85,2.023-3.29,2.023
		c-1.438,0-2.672-0.828-3.291-2.023c-0.618,1.195-1.852,2.023-3.289,2.023c-1.44,0-2.674-0.828-3.29-2.023
		c-0.619,1.195-1.852,2.023-3.292,2.023c-1.439,0-2.672-0.828-3.291-2.023c-0.618,1.195-1.852,2.023-3.29,2.023
		c0.099,0.125,0,14.48,0,14.48h65.808V-88.889z"/>
	<g>
		<polygon fill="#7C6B66" points="-47.639,-105.087 -68.612,-114.991 -106.561,-114.991 -127.535,-105.087 -128.389,-106.896 
			-107.009,-116.991 -68.165,-116.991 -46.785,-106.896 		"/>
	</g>
	<g>
		<rect x="-133.111" y="-104.563" fill="#7C6B66" width="12.873" height="30.155"/>
		<rect x="-55.06" y="-104.563" fill="#7C6B66" width="12.873" height="30.155"/>
	</g>
	<rect x="-133.123" y="-107.038" fill="#DC574B" width="90.948" height="2.891"/>
	<g>
		<rect x="-110.397" y="-117.545" fill="#FBE39D" width="3.497" height="43.137"/>
		<rect x="-68.397" y="-117.545" fill="#FBE39D" width="3.497" height="43.137"/>
	</g>
</g>
<g>
	<g>
		<polygon fill="#7C6B66" points="91.355,-116.824 7.46,-116.824 7.46,-112.949 7.506,-112.949 7.506,-103.783 9.52,-103.783 
			9.52,-112.949 15.685,-112.949 15.685,-103.783 17.698,-103.783 17.698,-112.949 23.864,-112.949 23.864,-103.783 
			25.878,-103.783 25.878,-112.949 32.043,-112.949 32.043,-103.783 34.057,-103.783 34.057,-112.949 40.223,-112.949 
			40.223,-103.783 42.236,-103.783 42.236,-112.949 48.401,-112.949 48.401,-103.783 50.415,-103.783 50.415,-112.949 
			56.58,-112.949 56.58,-103.783 58.594,-103.783 58.594,-112.949 64.76,-112.949 64.76,-103.783 66.773,-103.783 66.773,-112.949 
			72.938,-112.949 72.938,-103.783 74.952,-103.783 74.952,-112.949 81.118,-112.949 81.118,-103.783 83.132,-103.783 
			83.132,-112.949 89.297,-112.949 89.297,-103.783 91.311,-103.783 91.311,-112.949 91.355,-112.949 		"/>
	</g>
	<path fill="#49423A" d="M49.385-102.741c13.199,0,24.733,7.108,31,17.701v-24.034h-62v24.034
		C24.651-95.633,36.186-102.741,49.385-102.741z"/>
	<path fill="#43AA96" d="M79.738-82.383c-1.328,0-2.467-0.764-3.034-1.866c-0.57,1.103-1.708,1.866-3.037,1.866
		c-1.326,0-2.464-0.764-3.033-1.866c-0.569,1.103-1.709,1.866-3.038,1.866c-1.325,0-2.465-0.764-3.034-1.866
		c-0.568,1.103-1.708,1.866-3.034,1.866c-1.329,0-2.467-0.764-3.037-1.866c-0.568,1.103-1.707,1.866-3.035,1.866
		c-1.327,0-2.466-0.764-3.036-1.866c-0.567,1.103-1.706,1.866-3.033,1.866c-1.328,0-2.467-0.764-3.036-1.866
		c-0.57,1.103-1.708,1.866-3.035,1.866s-2.465-0.764-3.036-1.866c-0.569,1.103-1.707,1.866-3.035,1.866
		c-1.326,0-2.465-0.764-3.035-1.866c-0.57,1.103-1.708,1.866-3.034,1.866c-1.328,0-2.467-0.764-3.035-1.866
		c-0.57,1.103-1.708,1.866-3.036,1.866c-1.327,0-2.465-0.764-3.035-1.866c-0.57,1.103-1.708,1.866-3.035,1.866
		c0.091,0.115,0,10.591,0,10.591h60.706V-82.383z"/>
	<g>
		<rect x="7.447" y="-107.125" fill="#DC574B" width="11.875" height="35.333"/>
		<rect x="79.447" y="-107.125" fill="#DC574B" width="11.875" height="35.333"/>
	</g>
	<rect x="7.438" y="-109.408" fill="#FBE39D" width="83.896" height="2.667"/>
</g>
<g>
	<rect x="-251.717" y="27.75" fill="#FBE39D" width="64.756" height="2.431"/>
	<path fill="#FBE39D" d="M-177.614,23.219c0,0.726-0.589,1.314-1.314,1.314h-81.485c-0.726,0-1.314-0.589-1.314-1.314l0,0
		c0-0.726,0.589-1.314,1.314-1.314h81.485C-178.203,21.904-177.614,22.493-177.614,23.219L-177.614,23.219z"/>
	<path fill="#FBE39D" d="M-256.784,30.521c0,0.651-0.528,1.179-1.179,1.179l0,0c-0.651,0-1.179-0.527-1.179-1.179v-8.66
		c0-0.652,0.528-1.181,1.179-1.181l0,0c0.651,0,1.179,0.528,1.179,1.181V30.521z"/>
	<path fill="#FBE39D" d="M-243.991,30.521c0,0.651-0.528,1.179-1.179,1.179l0,0c-0.652,0-1.18-0.527-1.18-1.179v-8.66
		c0-0.652,0.528-1.181,1.18-1.181l0,0c0.651,0,1.179,0.528,1.179,1.181V30.521z"/>
	<path fill="#FBE39D" d="M-231.2,30.521c0,0.651-0.528,1.179-1.179,1.179l0,0c-0.651,0-1.179-0.527-1.179-1.179v-8.66
		c0-0.652,0.528-1.181,1.179-1.181l0,0c0.651,0,1.179,0.528,1.179,1.181V30.521z"/>
	<path fill="#FBE39D" d="M-218.407,30.521c0,0.651-0.528,1.179-1.18,1.179l0,0c-0.651,0-1.179-0.527-1.179-1.179v-8.66
		c0-0.652,0.528-1.181,1.179-1.181l0,0c0.651,0,1.18,0.528,1.18,1.181V30.521z"/>
	<path fill="#FBE39D" d="M-205.614,30.521c0,0.651-0.528,1.179-1.18,1.179l0,0c-0.65,0-1.179-0.527-1.179-1.179v-8.66
		c0-0.652,0.529-1.181,1.179-1.181l0,0c0.651,0,1.18,0.528,1.18,1.181V30.521z"/>
	<path fill="#FBE39D" d="M-192.822,30.521c0,0.651-0.528,1.179-1.179,1.179l0,0c-0.651,0-1.18-0.527-1.18-1.179v-8.66
		c0-0.652,0.528-1.181,1.18-1.181l0,0c0.651,0,1.179,0.528,1.179,1.181V30.521z"/>
	<path fill="#FBE39D" d="M-180.029,30.521c0,0.651-0.529,1.179-1.18,1.179l0,0c-0.651,0-1.179-0.527-1.179-1.179v-8.66
		c0-0.652,0.528-1.181,1.179-1.181l0,0c0.651,0,1.18,0.528,1.18,1.181V30.521z"/>
	<path fill="#43AA96" d="M-188.14,47.041c-1.365,0-2.535-0.784-3.12-1.918c-0.585,1.134-1.754,1.918-3.121,1.918
		c-1.363,0-2.533-0.784-3.118-1.918c-0.585,1.134-1.756,1.918-3.122,1.918c-1.364,0-2.534-0.784-3.12-1.918
		c-0.584,1.134-1.755,1.918-3.119,1.918c-1.365,0-2.535-0.784-3.121-1.918c-0.585,1.134-1.755,1.918-3.12,1.918
		c-1.365,0-2.535-0.784-3.121-1.918c-0.584,1.134-1.754,1.918-3.119,1.918c-1.365,0-2.536-0.784-3.121-1.918
		c-0.585,1.134-1.755,1.918-3.119,1.918s-2.535-0.784-3.121-1.918c-0.584,1.134-1.754,1.918-3.119,1.918
		c-1.364,0-2.534-0.784-3.12-1.918c-0.586,1.134-1.756,1.918-3.12,1.918c-1.364,0-2.535-0.784-3.12-1.918
		c-0.585,1.134-1.755,1.918-3.12,1.918c-1.364,0-2.534-0.784-3.12-1.918c-0.586,1.134-1.755,1.918-3.12,1.918
		c0.092,0.118,0,15.885,0,15.885h62.398V47.041z"/>
	<g>
		<rect x="-260.916" y="27.75" fill="#49423A" width="10.645" height="35.176"/>
		<rect x="-188.408" y="27.75" fill="#49423A" width="10.645" height="35.176"/>
	</g>
	<rect x="-260.916" y="30.175" fill="#7C6B66" width="83.173" height="3.42"/>
</g>
<g>
	<g>
		<rect x="-126.188" y="34.15" fill="#FBE39D" width="10.037" height="18.616"/>
		<rect x="-102.297" y="34.15" fill="#FBE39D" width="10.037" height="18.616"/>
		<rect x="-78.405" y="34.15" fill="#FBE39D" width="10.037" height="18.616"/>
		<rect x="-54.515" y="34.15" fill="#FBE39D" width="10.037" height="18.616"/>
	</g>
	<g>
		<rect x="-126.188" y="20.592" fill="#49423A" width="1.541" height="14.006"/>
		<rect x="-121.181" y="20.592" fill="#49423A" width="1.541" height="14.006"/>
		<rect x="-116.174" y="20.592" fill="#49423A" width="1.541" height="14.006"/>
		<rect x="-111.167" y="20.592" fill="#49423A" width="1.541" height="14.006"/>
		<rect x="-106.16" y="20.592" fill="#49423A" width="1.541" height="14.006"/>
		<rect x="-101.153" y="20.592" fill="#49423A" width="1.541" height="14.006"/>
		<rect x="-96.146" y="20.592" fill="#49423A" width="1.541" height="14.006"/>
		<rect x="-91.14" y="20.592" fill="#49423A" width="1.541" height="14.006"/>
		<rect x="-86.133" y="20.592" fill="#49423A" width="1.541" height="14.006"/>
		<rect x="-81.126" y="20.592" fill="#49423A" width="1.541" height="14.006"/>
		<rect x="-76.118" y="20.592" fill="#49423A" width="1.54" height="14.006"/>
		<rect x="-71.112" y="20.592" fill="#49423A" width="1.541" height="14.006"/>
		<rect x="-66.105" y="20.592" fill="#49423A" width="1.541" height="14.006"/>
		<rect x="-61.099" y="20.592" fill="#49423A" width="1.541" height="14.006"/>
		<rect x="-56.091" y="20.592" fill="#49423A" width="1.54" height="14.006"/>
		<rect x="-51.084" y="20.592" fill="#49423A" width="1.54" height="14.006"/>
		<rect x="-46.077" y="20.592" fill="#49423A" width="1.54" height="14.006"/>
	</g>
	<rect x="-126.188" y="30.065" fill="#49423A" width="81.696" height="5.976"/>
	<rect x="-126.174" y="19.154" fill="#DC574B" width="81.696" height="3.105"/>
	<path fill="#79C6B7" d="M-44.294,49.658c-1.791,0-3.326-1.028-4.094-2.518c-0.769,1.489-2.303,2.518-4.096,2.518
		c-1.788,0-3.324-1.028-4.092-2.518c-0.768,1.489-2.304,2.518-4.095,2.518s-3.326-1.028-4.095-2.518
		c-0.767,1.489-2.303,2.518-4.093,2.518s-3.325-1.028-4.094-2.518c-0.768,1.489-2.304,2.518-4.095,2.518s-3.325-1.028-4.094-2.518
		c-0.767,1.489-2.303,2.518-4.093,2.518c-1.791,0-3.326-1.028-4.094-2.518c-0.768,1.489-2.303,2.518-4.094,2.518
		c-1.791,0-3.326-1.028-4.095-2.518c-0.767,1.489-2.303,2.518-4.093,2.518s-3.326-1.028-4.094-2.518
		c-0.768,1.489-2.304,2.518-4.093,2.518c-1.791,0-3.327-1.028-4.095-2.518c-0.768,1.489-2.303,2.518-4.093,2.518
		c-1.791,0-3.325-1.028-4.094-2.518c-0.769,1.489-2.303,2.518-4.094,2.518c0.122,0.154,0,16.08,0,16.08h81.877V49.658z"/>
</g>
</svg>
