<?xml version="1.0" encoding="utf-8"?>
<!-- Generator: Adobe Illustrator 16.0.0, SVG Export Plug-In . SVG Version: 6.00 Build 0)  -->
<!DOCTYPE svg PUBLIC "-//W3C//DTD SVG 1.1//EN" "http://www.w3.org/Graphics/SVG/1.1/DTD/svg11.dtd">
<svg version="1.1" id="Layer_1" xmlns="http://www.w3.org/2000/svg" xmlns:xlink="http://www.w3.org/1999/xlink" x="0px" y="0px"
	 width="349.022px" height="142.815px" viewBox="0 0 349.022 142.815" enable-background="new 0 0 349.022 142.815"
	 xml:space="preserve">
<g>
	<g>
		<rect x="1" y="133.24" fill="#E6E6E6" width="348.022" height="9.575"/>
		<rect x="1" y="102.772" fill="#F2F2F2" width="348.022" height="30.468"/>
	</g>
	<g>
		<rect x="125.562" y="123.962" fill="#CCCCCC" width="102.634" height="4.179"/>
		<polygon fill="#E6E6E6" points="228.039,123.962 125.366,123.962 132.673,110.904 220.731,110.904 		"/>
		<polygon fill="#CCCCCC" points="137.971,113.777 133.587,113.777 134.5,111.949 138.885,111.949 		"/>
		<polygon fill="#CCCCCC" points="144,113.777 139.616,113.777 140.347,111.949 144.731,111.949 		"/>
		<polygon fill="#CCCCCC" points="149.481,113.777 145.097,113.777 145.827,111.949 150.212,111.949 		"/>
		<polygon fill="#CCCCCC" points="155.327,113.777 150.943,113.777 151.673,111.949 156.058,111.949 		"/>
		<polygon fill="#CCCCCC" points="160.808,113.777 156.423,113.777 157.154,111.949 161.539,111.949 		"/>
		<polygon fill="#CCCCCC" points="166.654,113.777 162.27,113.777 163,111.949 167.385,111.949 		"/>
		<polygon fill="#CCCCCC" points="172.135,113.777 167.75,113.777 168.481,111.949 172.866,111.949 		"/>
		<polygon fill="#CCCCCC" points="178.986,113.777 174.77,113.777 174.327,111.949 178.712,111.949 		"/>
		<polygon fill="#CCCCCC" points="184.923,113.777 180.539,113.777 179.808,111.949 184.193,111.949 		"/>
		<polygon fill="#CCCCCC" points="190.77,113.777 186.385,113.777 185.654,111.949 190.039,111.949 		"/>
		<polygon fill="#CCCCCC" points="196.25,113.777 191.866,113.777 191.135,111.949 195.52,111.949 		"/>
		<polygon fill="#CCCCCC" points="202.097,113.777 197.712,113.777 196.981,111.949 201.366,111.949 		"/>
		<polygon fill="#CCCCCC" points="210.866,113.777 206.481,113.777 205.75,111.949 210.135,111.949 		"/>
		<polygon fill="#CCCCCC" points="219.635,113.777 215.25,113.777 214.52,111.949 218.904,111.949 		"/>
		<polygon fill="#CCCCCC" points="207.212,121.873 128.958,121.873 132.673,115.344 203.193,115.344 		"/>
		<polygon fill="#CCCCCC" points="223.989,121.612 211.051,121.612 206.603,115.344 220.092,115.344 		"/>
	</g>
	<g>
		<polygon fill="#E6E6E6" points="195.227,106.29 191.91,84.093 160.073,84.093 156.755,106.29 146.193,106.29 146.193,108.118 
			207.304,108.118 207.304,106.29 		"/>
		<path fill="#F2F2F2" d="M243.082,81.845c0,4.45-3.287,7.993-7.323,7.993H117.74c-4.036,0-7.325-3.543-7.325-7.993V8.098
			c0-4.45,3.29-8.098,7.325-8.098h118.019c4.037,0,7.323,3.647,7.323,8.098V81.845z"/>
		<path fill="#232323" d="M235.759,0.055H117.74c-4.036,0-7.406,3.593-7.406,8.043v69.257h132.663V8.098
			C242.997,3.647,239.795,0.055,235.759,0.055z"/>
		<circle cx="176.752" cy="4.296" r="0.691"/>
		<rect x="116.079" y="7.019" fill="#EF5A34" width="121.346" height="63.546"/>
	</g>
	<g>
		<path fill="#FBB44C" d="M268.171,97.267h-1.801c-0.393-2.09-2.1-3.946-4.147-3.946h-11.428c-2.338,0-3.941,1.994-3.941,4.535
			v13.339c0,2.54,1.604,4.41,3.941,4.41h11.428c2.338,0,3.898-1.87,3.898-4.41v-1.161h2.05c1.592,0,2.824-1.266,2.824-3.123v-6.61
			C270.996,98.441,269.764,97.267,268.171,97.267z M269.603,106.752c0,0.929-0.377,1.425-1.173,1.425h-2.309v-9.054h2.309
			c0.796,0,1.173,0.405,1.173,1.335V106.752z"/>
		<ellipse fill="#B7412A" cx="256.566" cy="95.096" rx="7.775" ry="1.276"/>
	</g>
	<g>
		<path fill="#BABABA" d="M241.732,120.628c0.846,1.696-0.365,3.17-2.705,3.293l0,0c-2.339,0.121-4.921-1.154-5.767-2.852
			l-2.451-4.914c-0.846-1.696,0.365-3.171,2.705-3.293l0,0c2.339-0.122,4.921,1.154,5.767,2.851L241.732,120.628z"/>
		<path fill="#CFD0D3" d="M241.59,119.858c0.846,1.695-0.365,3.17-2.705,3.292l0,0c-2.339,0.122-4.921-1.153-5.767-2.851
			l-2.451-4.914c-0.846-1.696,0.365-3.171,2.705-3.293l0,0c2.339-0.122,4.921,1.154,5.767,2.851L241.59,119.858z"/>
	</g>
	<g>
		<path fill="#F74C4D" d="M110.755,92.931c0-3.035-4.27-5.495-9.538-5.495c-5.269,0-9.539,2.46-9.539,5.495
			c0,0.159,0.012,0.316,0.035,0.471h-0.035l2.331,13.515l0.792,4.598l0.018,0.103h0.083c1.385,1.374,3.712,2.276,6.351,2.276
			c2.639,0,4.966-0.902,6.351-2.276h0.013l0.002-0.016l0.825-4.781l2.312-13.418h-0.035
			C110.744,93.247,110.755,93.09,110.755,92.931z"/>
		<g>
			<g>
				<path fill="#B33921" d="M98.854,91.452c0.003,0,0.005-0.002,0.009-0.002l-1.836-5.17l-2.041,0.725l1.078,3.037l0.448-0.159
					l0.759,2.138c-0.002,0.002-0.005,0.003-0.007,0.004l1.724,4.856c0.582,0.131,1.214,0.215,1.879,0.24L98.854,91.452z"/>
				<path fill="#87281B" d="M99,96.906l-1.724-4.855c-0.002,0.001-0.005,0.003-0.007,0.004l-0.757-2.172l-0.448,0.159l0.854,2.451
					c0.003-0.002,0.006-0.004,0.009-0.006l1.518,4.275C98.624,96.815,98.81,96.863,99,96.906z"/>
				<g>
					
						<rect x="94.57" y="83.18" transform="matrix(0.9424 -0.3345 0.3345 0.9424 -23.4276 37.0754)" fill="#9E2D1E" width="2.694" height="6.736"/>
					
						<rect x="93.814" y="82.591" transform="matrix(0.9425 -0.3343 0.3343 0.9425 -22.2981 36.4322)" fill="#7F2519" width="1.77" height="0.819"/>
					
						<rect x="93.665" y="84.382" transform="matrix(-0.9419 0.3358 -0.3358 -0.9419 210.8426 133.9956)" fill="#C1BFC0" width="0.343" height="1.69"/>
					
						<rect x="93.964" y="84.389" transform="matrix(-0.9424 0.3344 -0.3344 -0.9424 212.5442 139.2885)" fill="#C6C6C6" width="0.634" height="7.105"/>
					
						<rect x="93.978" y="84.472" transform="matrix(-0.943 0.3328 -0.3328 -0.943 212.024 139.7326)" fill="#9B9B9B" width="0.132" height="7.106"/>
				</g>
			</g>
			
				<rect x="94.633" y="83.552" transform="matrix(0.9422 -0.335 0.335 0.9422 -23.6345 36.8003)" fill="#661B16" width="0.475" height="6.736"/>
			
				<rect x="93.855" y="82.829" transform="matrix(0.9428 -0.3333 0.3333 0.9428 -22.3655 36.0946)" fill="#561912" width="0.343" height="0.819"/>
		</g>
		<g>
			<path fill="#4FB1E8" d="M104.45,91.68c-0.002-0.001-0.005-0.001-0.007-0.002l1.659-4.864l1.92,0.655l-0.974,2.857l-0.422-0.144
				l-0.687,2.012c0.003,0.001,0.005,0.002,0.008,0.003l-1.559,4.569c-0.544,0.13-1.135,0.215-1.757,0.247L104.45,91.68z"/>
			<path fill="#50ABDD" d="M104.375,96.791l1.559-4.569c0.002,0.002,0.004,0.003,0.007,0.004l0.684-2.043l0.422,0.144l-0.772,2.307
				c-0.003-0.002-0.006-0.003-0.009-0.006l-1.372,4.022C104.727,96.701,104.554,96.749,104.375,96.791z"/>
			
				<rect x="107.414" y="83.33" transform="matrix(-0.9465 -0.3226 0.3226 -0.9465 183.6971 197.8697)" fill="#337EA8" width="1.659" height="0.768"/>
			
				<rect x="108.715" y="83.546" transform="matrix(-0.947 -0.3212 0.3212 -0.947 185.0226 198.3851)" fill="#26586D" width="0.322" height="0.768"/>
			
				<rect x="105.884" y="83.896" transform="matrix(-0.9465 -0.3228 0.3228 -0.9465 180.4573 204.0284)" fill="#3A98D8" width="2.523" height="6.311"/>
			
				<rect x="108.918" y="84.998" transform="matrix(0.9468 0.3217 -0.3217 0.9468 33.3951 -30.5291)" fill="#C1BFC0" width="0.322" height="1.584"/>
			
				<rect x="108.396" y="85.01" transform="matrix(0.9459 0.3244 -0.3244 0.9459 34.5309 -30.4799)" fill="#C6C6C6" width="0.593" height="6.657"/>
			
				<rect x="108.854" y="85.086" transform="matrix(0.9459 0.3245 -0.3245 0.9459 34.5878 -30.5607)" fill="#9B9B9B" width="0.123" height="6.657"/>
		</g>
	</g>
	<g>
		<g>
			<path fill="#334D5C" d="M64.023,110.075c0,0.486-0.394,0.881-0.88,0.881H33.914c-0.486,0-0.88-0.395-0.88-0.881v-2.07
				c0-0.485,0.394-0.88,0.88-0.88h29.229c0.486,0,0.88,0.395,0.88,0.88V110.075z"/>
			<path fill="#283D47" d="M64.023,110.798c0,0.087-0.349,0.158-0.835,0.158H33.943c-0.486,0-0.909-0.071-0.909-0.158v-0.377
				c0-0.087,0.422-0.162,0.909-0.162h29.246c0.486,0,0.835,0.075,0.835,0.162V110.798z"/>
			
				<rect x="37.752" y="70.324" transform="matrix(0.8921 -0.4519 0.4519 0.8921 -36.4549 27.751)" fill="#334D5C" width="4.225" height="39.727"/>
			
				<rect x="45.321" y="35.828" transform="matrix(0.6635 0.7481 -0.7481 0.6635 57.6251 -16.7484)" fill="#334D5C" width="4.224" height="39.728"/>
			<circle fill="#334D5C" cx="30.747" cy="71.514" r="5.544"/>
			<circle fill="#E6E6E6" cx="30.747" cy="71.514" r="2.975"/>
			<circle fill="#334D5C" cx="62.78" cy="42.473" r="5.544"/>
			<circle fill="#E6E6E6" cx="62.78" cy="42.473" r="2.975"/>
		</g>
		<path fill="#EFC94C" d="M93.337,55.822c2.108-2.179,2.05-5.653-0.129-7.762l-7.632,7.892C87.755,58.06,91.23,58.001,93.337,55.822
			z"/>
		<g>
			<path fill="#E6E6E6" d="M74.485,27.653c-0.972-0.926-6.333-5.534-11.361,0.002l0.005,0.005c-4.581,5.056-0.23,9.778,0.682,10.667
				l0.001-0.001l7.062,7.062l10.68-10.681l-7.062-7.062L74.485,27.653z"/>
			<g>
				<path fill="#EFC94C" d="M75.615,37.979c0.213,0.214,0.213,0.56,0,0.773l-0.735,0.735c-0.213,0.214-0.56,0.214-0.774,0
					l-7.41-7.41c-0.214-0.214-0.214-0.561,0-0.774l0.735-0.735c0.213-0.214,0.56-0.214,0.774,0L75.615,37.979z"/>
				<path fill="#EFC94C" d="M78.381,35.211c0.214,0.214,0.214,0.561,0,0.774l-0.735,0.735c-0.214,0.214-0.56,0.214-0.774,0
					l-7.411-7.411c-0.213-0.213-0.213-0.56,0-0.773l0.735-0.735c0.214-0.214,0.561-0.214,0.774,0L78.381,35.211z"/>
				<path fill="#EFC94C" d="M72.867,40.726c0.214,0.214,0.214,0.561,0,0.773l-0.735,0.735c-0.214,0.214-0.561,0.214-0.774,0
					l-7.411-7.41c-0.214-0.214-0.214-0.56,0-0.773l0.735-0.735c0.214-0.214,0.56-0.214,0.774,0L72.867,40.726z"/>
			</g>
			<polygon fill="#E6E6E6" points="81.54,34.732 76.214,40.049 76.214,40.049 76.205,40.058 76.195,40.067 76.195,40.067 
				70.879,45.393 74.879,67.853 89.429,53.302 89.448,53.283 103.999,38.732 			"/>
		</g>
	</g>
	<g>
		<path fill="#2ABB9B" d="M314.424,126.317c0.283,0.48,0.124,0.869-0.356,0.869h-16.34c-0.48,0-1.085-0.389-1.369-0.869
			l-11.546-19.556c-0.283-0.48-0.101-0.807,0.38-0.807h16.34c0.48,0,1.062,0.326,1.345,0.807L314.424,126.317z"/>
		<path fill="#D19443" d="M284.372,106.136c-0.059-0.1-0.187-0.181-0.286-0.181l0,0c-0.1,0-0.132,0.081-0.074,0.181l12.322,20.871
			c0.059,0.1,0.187,0.18,0.286,0.18l0,0c0.1,0,0.133-0.08,0.074-0.18L284.372,106.136z"/>
		<polygon fill="#EF5A34" points="312.274,127.187 310.259,127.187 297.725,105.955 299.74,105.955 		"/>
		<polygon fill="#BC452E" points="310.403,127.187 310.259,127.187 297.725,105.955 297.868,105.955 		"/>
		<g>
			<polygon fill="#EF5A34" points="285.933,104.269 284.868,103.807 286.137,105.955 287.72,105.955 286.452,103.807 			"/>
			<polygon fill="#BC452E" points="286.209,105.955 286.137,105.955 284.868,103.807 284.971,103.857 			"/>
		</g>
	</g>
	<g>
		<g>
			<polygon fill="#EF5A34" points="289.905,127.331 288.321,127.331 278.803,111.209 280.386,111.209 			"/>
			<polygon fill="#A83E2C" points="277.625,106.531 276.042,106.531 275.531,105.667 277.115,105.667 			"/>
			<polygon fill="#B7432C" points="288.681,127.331 288.321,127.331 278.803,111.209 279.163,111.209 			"/>
			<g>
				<polygon fill="#A83E2C" points="279.501,108.979 279.357,108.979 277.955,106.603 278.099,106.603 				"/>
				<polygon fill="#B74334" points="281.008,110.921 280.648,110.921 278.099,106.603 278.459,106.603 				"/>
			</g>
			<polygon fill="#D85035" points="281.057,111.856 278.897,111.856 275.583,106.243 277.743,106.243 			"/>
		</g>
		<g>
			<polygon fill="#3A98D8" points="294.769,127.402 293.186,127.402 283.668,111.281 285.251,111.281 			"/>
			<polygon fill="#1A4051" points="282.489,106.603 280.906,106.603 280.396,105.739 281.979,105.739 			"/>
			<polygon fill="#398DAA" points="293.474,127.402 293.186,127.402 283.668,111.281 283.956,111.281 			"/>
			<g>
				<polygon fill="#1A4051" points="284.366,109.05 284.15,109.05 282.748,106.675 282.963,106.675 				"/>
				<polygon fill="#225060" points="285.843,111.065 285.555,111.065 282.963,106.675 283.251,106.675 				"/>
			</g>
			<polygon fill="#317FAA" points="285.921,111.929 283.69,111.929 280.376,106.315 282.607,106.315 			"/>
		</g>
	</g>
	<g>
		<path fill="#2B6C89" d="M64.952,114.897c0,0,22.208,4.688,26.271,7.4c4.063,2.714,3.449,4.82,3.356,5.287
			c-0.092,0.468-1.124,0.778-1.654-0.012c-0.53-0.789,0.427-2.171-0.459-2.746c0,0-16.996-6.745-27.603-9.147L64.952,114.897z"/>
		<path fill="#2B6C89" d="M96.959,121.2c0,0-22.186-4.057-26.947-3.092c-4.762,0.965-4.983,3.136-5.075,3.601
			c-0.091,0.465,0.745,1.141,1.53,0.614c0.785-0.527,0.413-2.162,1.445-2.356c0,0,18.231,0.211,28.896,1.999L96.959,121.2z"/>
		<path fill="#3485B2" d="M78.473,116.052l-11.885-2.34c-0.746-0.147-1.469,0.339-1.616,1.084l-0.922,7.534
			c-0.147,0.746,0.338,1.47,1.084,1.617l9.994,1.968c0.746,0.146,1.47-0.339,1.616-1.085l2.813-7.161
			C79.704,116.923,79.219,116.198,78.473,116.052z M76.081,124.637l-0.012,0.061c-0.073,0.372-0.436,0.615-0.808,0.542l-9.994-1.968
			c-0.372-0.073-0.616-0.436-0.542-0.809l0.004-0.024l0.922-7.529c0.083-0.361,0.439-0.594,0.804-0.522l11.884,2.341
			c0.355,0.069,0.593,0.403,0.55,0.757L76.081,124.637z"/>
		<polygon opacity="0.2" fill="#F2F2F2" points="70.422,124.286 66.348,123.484 70.987,115.279 75.062,116.082 		"/>
		<path fill="#3485B2" d="M82.528,118.254l-0.112,7.693c-0.147,0.745,0.338,1.47,1.084,1.616l9.994,1.969
			c0.746,0.146,1.47-0.34,1.617-1.085l2.002-7.321c0.147-0.746-0.338-1.47-1.084-1.617l-11.884-2.34
			C83.399,117.022,82.675,117.508,82.528,118.254z M83.216,118.336c0.095-0.344,0.441-0.562,0.796-0.491l11.884,2.34
			c0.365,0.072,0.606,0.423,0.546,0.788l-2.002,7.317l-0.004,0.023c-0.074,0.373-0.436,0.616-0.809,0.543l-9.994-1.968
			c-0.372-0.073-0.615-0.437-0.542-0.809l0.012-0.062L83.216,118.336z"/>
		<polygon opacity="0.2" fill="#F2F2F2" points="84.375,127.034 88.33,127.813 93.017,119.617 89.062,118.839 		"/>
		<path fill="#3485B2" d="M80.689,120.112c0.871,0.172,1.605,0.493,2.008,0.84h0.001l-0.06-1.835l-3.427-0.675l-0.7,1.686h0.001
			C79.017,119.96,79.818,119.94,80.689,120.112z"/>
	</g>
</g>
<g>
	<g>
		<g>
			<rect x="149.453" y="25.799" fill="#D0BF94" width="3.201" height="12.449"/>
		</g>
		<g>
			<rect x="157.989" y="19.396" fill="#D0BF94" width="3.201" height="18.852"/>
		</g>
		<g>
			<rect x="166.525" y="15.396" fill="#D0BF94" width="3.202" height="22.853"/>
		</g>
		<g>
			<rect x="175.062" y="14.862" fill="#D0BF94" width="3.201" height="23.386"/>
		</g>
		<g>
			<rect x="183.598" y="16.462" fill="#D0BF94" width="3.201" height="21.786"/>
		</g>
		<g>
			<rect x="192.135" y="19.396" fill="#D0BF94" width="3.201" height="18.852"/>
		</g>
		<g>
			<rect x="200.671" y="25.532" fill="#D0BF94" width="3.201" height="12.716"/>
		</g>
	</g>
	<path fill="#D0BF94" d="M147.284,37.271c4.88-11.322,16.178-18.963,29.19-18.963c12.91,0,24.269,7.734,29.173,18.963h5.733
		c-5.183-14.269-19.04-24.298-34.907-24.298c-15.988,0-29.772,9.896-34.933,24.298H147.284z"/>
	<path fill="#78C5B6" d="M212.519,48.432c-1.596,0-2.965-0.917-3.65-2.245c-0.685,1.328-2.053,2.245-3.651,2.245
		c-1.594,0-2.963-0.917-3.648-2.245c-0.685,1.328-2.054,2.245-3.651,2.245c-1.597,0-2.966-0.917-3.65-2.245
		c-0.684,1.328-2.054,2.245-3.649,2.245c-1.597,0-2.966-0.917-3.65-2.245c-0.685,1.328-2.054,2.245-3.65,2.245
		c-1.597,0-2.966-0.917-3.651-2.245c-0.683,1.328-2.052,2.245-3.648,2.245c-1.598,0-2.966-0.917-3.652-2.245
		c-0.685,1.328-2.053,2.245-3.649,2.245c-1.597,0-2.966-0.917-3.651-2.245c-0.684,1.328-2.053,2.245-3.649,2.245
		c-1.595,0-2.964-0.917-3.65-2.245c-0.685,1.328-2.054,2.245-3.649,2.245c-1.596,0-2.965-0.917-3.65-2.245
		c-0.686,1.328-2.054,2.245-3.65,2.245s-2.965-0.917-3.65-2.245c-0.686,1.328-2.054,2.245-3.65,2.245c0.108,0.138,0,16.973,0,16.973
		h73.003V48.432z"/>
	<rect x="138.137" y="35.937" fill="#7D6B66" width="75.761" height="4.001"/>
	<g>
		<g>
			<rect x="127.375" y="37.15" fill="#49423A" width="12.454" height="28.254"/>
			<polygon fill="#2ABB9B" points="139.847,31.09 139.847,33.42 135.341,33.42 135.341,31.09 131.862,31.09 131.862,33.42 
				127.356,33.42 127.356,31.09 123.878,31.09 123.878,33.42 123.878,37.492 123.878,39.824 143.326,39.824 143.326,37.492 
				143.326,33.42 143.326,31.09 			"/>
			<path fill="#7D6B66" d="M136.341,52.216v-5.77c0-1.513-1.226-2.739-2.739-2.739s-2.739,1.227-2.739,2.739v5.77H136.341z"/>
		</g>
		<g>
			<rect x="212.206" y="37.15" fill="#49423A" width="12.455" height="28.254"/>
			<polygon fill="#2ABB9B" points="224.678,31.09 224.678,33.42 220.173,33.42 220.173,31.09 216.693,31.09 216.693,33.42 
				212.188,33.42 212.188,31.09 208.708,31.09 208.708,33.42 208.708,37.492 208.708,39.824 228.157,39.824 228.157,37.492 
				228.157,33.42 228.157,31.09 			"/>
			<path fill="#7D6B66" d="M221.172,52.216v-5.77c0-1.513-1.227-2.739-2.74-2.739s-2.738,1.227-2.738,2.739v5.77H221.172z"/>
		</g>
	</g>
</g>
</svg>
